<svg height="48" width="48" xmlns="http://www.w3.org/2000/svg" xmlns:xlink="http://www.w3.org/1999/xlink"><linearGradient id="a" gradientUnits="userSpaceOnUse" x2="0" y1="44" y2="4"><stop offset="0" stop-color="#7cbaf8"/><stop offset="1" stop-color="#f4fcff"/></linearGradient><linearGradient id="b" gradientTransform="matrix(1.02857 0 0 1.2 -5.314 -2013.52)" gradientUnits="userSpaceOnUse" x2="0" y1="39" y2="9"><stop offset="0" stop-color="#197cf1"/><stop offset="1" stop-color="#20bcfa"/></linearGradient><linearGradient id="c" gradientUnits="userSpaceOnUse" x1="25.04" x2="42.99" y1="13.01" y2="30.26"><stop offset="0" stop-color="#292c2f"/><stop offset="1" stop-color="#292c2f" stop-opacity="0"/></linearGradient><linearGradient id="d" gradientUnits="userSpaceOnUse" x1="14.59" x2="36.06" xlink:href="#c" y1="18.26" y2="40.44"/><g stroke-width="2"><g fill-rule="evenodd"><path d="m44 24a20 20 0 0 1 -20 20 20 20 0 0 1 -20-20 20 20 0 0 1 20-20 20 20 0 0 1 20 20" fill="url(#a)"/><path d="m24 6c-9.941 0-18 8.06-18 18 0 9.941 8.06 18 18 18 9.941 0 18-8.06 18-18 0-9.941-8.06-18-18-18m1 7h2v6.08a7 6 0 0 1 4-1.080078 7 6 0 0 1 7 6 7 6 0 0 1 -7 6 7 6 0 0 1 -4-1.085938v2.086h-2zm-4 4h2v18h-2v-6.08a7 6 0 0 1 -4 1.080078 7 6 0 0 1 -7-6 7 6 0 0 1 7-6 7 6 0 0 1 4 1.085938zm-4 3a5 4 0 0 0 -5 4 5 4 0 0 0 5 4 5 4 0 0 0 4-1.609375v-4.783a5 4 0 0 0 -4-1.607422m14 0a5 4 0 0 0 -4 1.609375v4.783a5 4 0 0 0 4 1.607422 5 4 0 0 0 5-4 5 4 0 0 0 -5-4" fill="url(#b)"/></g><path d="m23.01 17.06-.014.023v17.916h-2v-6.08a7 6 0 0 1 -4 1.080078 7 6 0 0 1 -5.4375-2.228516l-.021.021 15.906 15.904a20 20 0 0 0 13.339843-8.863282l-5.869-5.869a7 6 0 0 1 -3.917969 1.035156 7 6 0 0 1 -4-1.085938v2.086h-2v-11.953z" fill="url(#d)" opacity=".2"/><path d="m27 13.01v6.066a7 6 0 0 1 4-1.080078 7 6 0 0 1 1.060547.074219zm8.773 6.563-.023.023a7 6 0 0 1 .328125.28125zm.751953.751953a7 6 0 0 1 1.474609 3.671875 7 6 0 0 1 -7 6 7 6 0 0 1 -4-1.085938v2.086h-1.955l9.801 9.801a20 20 0 0 0 8.830078-13.322265z" fill="url(#c)" opacity=".2"/></g></svg>